<?xml version="1.0" encoding="utf-8"?>
<!-- Generator: Adobe Illustrator 18.1.1, SVG Export Plug-In . SVG Version: 6.00 Build 0)  -->
<svg version="1.1" xmlns="http://www.w3.org/2000/svg" xmlns:xlink="http://www.w3.org/1999/xlink" x="0px" y="0px"
	 viewBox="0 0 501.5 60.7" enable-background="new 0 0 501.5 60.7" xml:space="preserve">
<g id="Layer_2" display="none">
	<rect x="-33.8" y="-68.4" display="inline" fill="#C12556" width="575.3" height="227.3"/>
</g>
<g id="Ebene_1_Kopie">
	<g>
		<path fill="#DC002E" d="M109.5,27.6c-3-2.9-6.9-4.7-11.2-4.7c-9.2,0-16.6,8.1-16.7,18.2c0,10,7.5,18.2,16.6,18.2
			c4.3,0,8.3-1.8,11.2-4.8l0,4.5h11.1L120.5,0l-11.1,0L109.5,27.6z M101.4,50.3c-4.5,0-8.2-4-8.2-8.9c0-4.9,3.7-8.9,8.2-8.9
			c4.5,0,8.1,4,8.1,9C109.5,46.3,105.9,50.3,101.4,50.3z"/>
		<path fill="#DC002E" d="M38.1,19.6c0-9.1-7.5-16.5-16.7-16.5c-0.3,0-1.6,0-1.9,0L0,3l0,55.7h11.8l0.1-46l7.1,0
			c4.4,0,7.7,3.3,7.7,7.3c0,4-3.6,7.3-7.9,7.3l-2.8,0l0,13.3l11.8,18.3h13.9L25.4,35.5C32.7,33.7,38.1,27.3,38.1,19.6z"/>
		<path fill="#DC002E" d="M58.5,22.9c-10.2,0-18.4,8.3-18.4,18.6c0,10.2,8.2,18.6,18.3,18.6c7.7,0,13.8-3.5,16.9-9l-9-4.1
			c-1.2,2.5-3.8,4.2-7,4.2c-4.2,0-7.6-3.1-7.6-6.9c0-0.3-0.1-0.2-0.1-0.4l24.6,0.1c0.1-0.8,0.2-1.6,0.1-2.4
			C76.5,29.5,68.6,22.9,58.5,22.9z M51.7,37.4c0-3.8,3.1-6.8,6.8-6.8c3.7,0,6.8,3,6.8,6.8H51.7z"/>
		<polygon fill="#DC002E" points="240.8,0.6 240.7,59.2 251.8,59.2 251.9,0.6 		"/>
		<polygon fill="#DC002E" points="221.9,59.1 233,59.2 233.1,0.6 222,0.6 		"/>
		<path fill="#DC002E" d="M167.5,28.7c3-2.8,4.9-6.7,4.9-10.8c0-3.8-1.4-7.3-4-10c-2.7-2.9-7.3-4.2-13.7-4.2l-19-0.1L135.7,59h24.6
			c9.4-0.1,17-7.3,17-16C177.2,36.7,175,32.1,167.5,28.7z M158.2,49.3h-10.6l0-36.1l7.4,0c3.3,0,5.9,2.6,5.9,5.9
			c0,3.3-2.7,5.9-5.9,5.9h-3.9v10l7.1,0.1c3.9,0,6.9,3.2,6.9,7.1C164.9,46.2,162.4,49.1,158.2,49.3z"/>
		<path fill="#DC002E" d="M204.8,45c0,3.3-2.9,6.1-6.3,6.1c-3.6,0-6.4-2.7-6.4-6.1l0-20l-11,0l0,22.2c0,7.5,7.7,13.6,17.3,13.6
			c9.6,0,17.4-6.1,17.4-13.6l0-22.2h-11L204.8,45z"/>
	</g>
	<path fill="#B1B3B4" d="M295.2,14.3c-2.2-3.8-4.9-6.1-9.6-6.1c-5,0-9.3,3.6-9.3,8.7c0,4.8,5,7,8.7,8.7l3.7,1.6
		c7.3,3.2,13.4,6.8,13.4,15.7c0,9.8-7.8,17.2-17.5,17.2c-9,0-15.6-5.8-17.4-14.4l6.1-1.7c0.8,5.7,5.2,10.4,11.2,10.4
		c6,0,11.5-4.6,11.5-10.9c0-6.5-5.1-8.7-10.3-11.1l-3.4-1.5c-6.5-3-12.1-6.3-12.1-14.3c0-8.7,7.3-14.2,15.6-14.2
		c6.2,0,11.5,3.2,14.4,8.7L295.2,14.3z"/>
	<path fill="#B1B3B4" d="M345.4,26.1V3.4h6.2v55.8h-6.2V31.9h-28.6v27.4h-6.2V3.4h6.2v22.7H345.4z"/>
	<circle fill="#B1B3B4" cx="387.1" cy="31.3" r="29"/>
	<circle fill="#FFFFFF" cx="387.1" cy="31.3" r="23.9"/>
	<circle fill="#FDC600" cx="387.1" cy="31.3" r="22.4"/>
	<g>
		<g>
			<path fill="#FFFFFF" d="M387.1,35.2c-0.7,0.2-1.4,0.4-2,0.6c0.2,0.4,0.5,0.9,0.9,1.3c0.2-0.5,0.5-0.9,0.7-1.3
				C386.8,35.7,387,35.5,387.1,35.2z M350.7,39.1c-0.5-0.7-1-2.1-1.4-4.1c-6.1,1.6-9.4-2.2-9.5-5.8c-0.1-2.8,0.5-4,3.3-6.7
				c-3.1-0.2-5.1-2.7-5.1-4.9c0-1.9,0.3-2.4,0.6-3.1l0.3-0.5l0.5,0.3c0,0,2.4,1.4,3.4,1.7c0,0,0.1,0,0.3,0c0.2,0,0.4,0,0.7,0
				c0.5,0,1.2,0.1,1.9,0.2c1.3,0.3,2.9,0.9,3.5,2.6c0.6,1.6,0.4,2.8-0.4,4c-0.3,0.5-0.8,1.1-1.3,1.6c-0.5,0.5-1.1,1.1-1.7,1.7
				c-0.9,0.9-1.3,1.9-1.1,2.8c0.2,1.1,1.2,1.5,2.2,1.4c1.2-0.1,2.4-0.9,3.6-2c0.6-0.5,1.3-1.1,1.9-1.7c0.7-0.6,1.4-1.1,2.2-1.6
				c0.7-0.4,1.3-0.7,1.9-0.9c0.6-0.2,1.1-0.3,1.6-0.4c0.9-0.2,1.7-0.4,2.5-1c0.2-0.2,0.5-0.4,0.8-0.8c0.3-0.4,0.7-0.8,1.1-1.1
				c0.8-0.8,1.8-1.5,3.1-1.7c0.3-0.1,0.7-0.1,1-0.2c0.4-0.1,0.6-0.1,0.8-0.2c0.1-0.1,0.2-0.2,0.5-0.4c0.2-0.2,0.4-0.5,0.7-0.8
				c0.6-0.6,1.4-1.4,2.5-1.9c1.5-0.6,2.5-1.1,3.4-1.6c0.9-0.5,1.8-1.1,3-2c0.7-0.7,3.9-2.1,7.5-0.2c1.1,0.6,2,1.2,3,1.9
				c1,0.7,2.2,1.5,3.8,2.7c0.5,0.4,1.1,1,1.6,1.5c0.5,0.6,1,1.1,1.4,1.5c1.8,1.9,3.2,3.3,3.7,5.2c0.8,3.3,1.3,5.2,2.9,8.5
				c0,0,0.1,0.1,0.1,0.1c0.1,0.1,0.2,0.1,0.3,0.2l0.3,0.3c0.1,0.1,0.2,0.2,0.4,0.3c0.2,0.3,0.5,0.6,0.6,0.9c0.2,0.3,0.4,0.6,0.6,0.9
				c0.4,0.6,0.9,1,1.5,1.3c0.8,0.3,1,0.5,1.4,0.7c0.6,0.5,0.4,1.3,0,1.8c-0.3,0.3-0.7,0.5-1.1,0.6c0.3,0.9-0.3,1.9-1.7,2
				c-2.9,0.4-4.9-0.8-5.8-1.5l-0.1,0.1c-0.3,0.2-0.7,0.6-1.3,0.9c-0.7,0.4-1.5,0.5-2.1,0.5c-0.3,0-0.7,0-1,0c-0.3,0-0.6,0-0.8,0.1
				c-0.5,0.2-1.1,0.4-1.7,0.7c-0.6,0.2-1.3,0.5-2,0.6c-1.2,0.1-2.1-0.3-2.6-1c-0.1-0.1-0.2-0.3-0.3-0.5c-0.4,1-0.8,1.7-1.3,2.1
				c-0.5,0.2-1,0.4-1.5,0.5c-0.2,0.1-0.5,0.1-0.6,0.1c0,0-0.1,0-0.2,0c-1.9,1.1-5,2.7-6.2,2.8c-1.4,0.2-3-0.8-3.9-2.3
				c-0.6,0.1-1.4,0-1.7-0.2c-0.9-0.7-2.2-2.8-2.3-3.6c-0.1-0.6,0.3-1,0.6-1.3c0.3-0.2,0.8-0.4,1.2-0.5c0.8-0.3,1.7-0.3,2.1-0.3
				c0.2,0,0.3,0,0.4,0c0.1,0,0.3,0,0.4,0c0.1,0,0.2,0,0.3,0.1c0.2-0.4,0.8-0.6,1.2-0.7c0.1,0,0.2,0,0.3,0c-0.3-0.2-0.5-0.4-0.7-0.6
				c-0.1,0.1-0.2,0.1-0.4,0.2c-0.4,0.1-0.8,0.3-1.4,0.4c-1.7,0.3-4.4,0.3-4.7,0.3c-0.4,0.1-1.2,0.3-2,0.5c-0.7,0.2-1.4,0.3-2,0.4
				c-0.2,0.6-0.5,1.2-0.7,1.8c-0.2,0.6-0.5,1.2-0.7,1.5c-0.3,0.5-0.8,0.8-1.1,1.1c-0.2,0.1-0.4,0.2-0.5,0.3
				c-0.1,0.1-0.3,0.2-0.3,0.3c-0.3,0.2-0.9,0.6-1.5,1c-0.6,0.3-1.3,0.7-2,0.6c-1.6-0.1-2.7-0.1-3.2-0.1c-0.2,0-0.4,0.1-0.8,0.4
				c-0.1,0.1-0.3,0.3-0.5,0.4c-0.2,0.2-0.3,0.4-0.5,0.6c-0.7,0.7-1.7,1.6-3.2,1.7c-0.1,0-0.4,0-0.7,0c-0.1,0-0.3,0-0.5-0.1
				c-0.1,0.1-0.2,0.3-0.3,0.5c-0.1,0.1-0.1,0.3-0.2,0.4c-0.1,0.2-0.2,0.3-0.3,0.5c-0.4,0.7-1.1,1.3-2.4,1.5c0,0-0.1,0-0.3,0
				c-0.1,0-0.2,0-0.4,0c-0.2,0-0.6-0.1-0.9-0.1c-0.3,0-0.6-0.1-0.9-0.1l-0.3,0c-0.1,0.1-0.2,0.2-0.2,0.2c-0.1,0.1-0.3,0.2-0.5,0.2
				c-0.2,0-0.8,0-1.5,0c-0.3-0.1-0.7-0.1-1-0.3c-0.3-0.1-0.7-0.4-0.8-0.8c-0.2-0.6-0.2-1,0-1.4c0.1-0.2,0.2-0.3,0.2-0.4
				c0-0.1,0.1-0.2,0.1-0.4c0-0.3,0.1-0.6,0.1-0.9c0.1-0.3,0.1-0.6,0.2-1c0.2-0.7,0.7-1.3,1.7-1.5l0.1-0.1c0.5-1.7,2.2-2.8,3.3-2.8
				l0.1,0c0.9,0.1,1.5,0.5,1.8,1.1c0.2-0.2,0.4-0.4,0.4-0.6c0-0.1,0-0.2,0.1-0.2c0-0.1,0.1-0.3,0.1-0.4c0.1-0.3,0.2-0.7,0.2-1
				c0.2-0.7,0.6-1.7,1.6-1.8c0.9-0.1,1.8-0.3,2.4-0.6C350.5,39.2,350.6,39.1,350.7,39.1z"/>
		</g>
		<g>
			<g>
				<path fill="#DC002E" d="M341.5,48l0,0.3c-0.3,0.8-0.4,1.8-0.5,2.8c-0.7,0-1.2-0.2-1.7-0.3c-0.1-0.1-0.1-0.3,0-0.5
					c0.6-0.6,0.3-1.3,0.4-2c0.1-0.4,0.4-0.8,0.8-1.1C340.9,47.3,341.3,47.8,341.5,48z M344.3,44.9c-0.3,0.7-0.7,1.6-1.4,2
					c-0.3,0.1-0.6,0.1-0.9,0c-0.2-0.1-0.4-0.3-0.5-0.5c0-0.2-0.1-0.6,0.1-0.8c0.5-0.4,1.1-0.8,1.5-1.3c0.2-0.1,0.4-0.2,0.5-0.1
					C343.9,44.5,344.2,44.7,344.3,44.9z M378.4,41.3c0.1,0.3,0.6,0.6,0.3,0.9c-0.5,0.5-1.1,0.8-1.8,0.8c-0.6-0.3-0.6-1.2-1.2-1.6
					c-0.1-0.4-0.8-0.3-0.7-0.8l0.2-0.1c0.7-0.1,1.5-0.2,2.2-0.4C378.2,40,378,40.9,378.4,41.3z M342.7,17.2c1.7,0.3,3.4,0.1,4.8,1.3
					c0.8,0.8,1,2.2,0.5,3.1c-0.8,1.7-2.6,2.8-3.6,4.3c-1,1.1-1.4,2.7-0.8,4.1c0.5,1.2,1.9,2,3.2,2c2-0.1,3.5-1.3,5-2.4
					c1.5-1.3,2.9-2.9,4.7-3.6c1.2-0.6,2.6-0.5,3.7-1.1c1.3-0.4,2.2-1.6,3.1-2.6c1.1-1.1,2.4-1.7,3.9-1.8c1.4,0.1,2-1.2,2.9-2.1
					c1.4-1.5,3.5-1.9,5.2-2.9c1.2-0.5,2.2-1.6,3.3-2.3c1.1-0.6,2.7-0.8,3.9-0.5c0.8,0.3,1.6,0.5,2.3,1l6,4.1
					c0.1,0.2,0.3,0.3,0.5,0.4c1.7,1.8,3.6,3.5,5,5.4c0.5,0.7,0.7,1.5,1,2.2c0.6,3.1,1.7,5.7,3,8.4c0.3,0.4,0.9,0.6,1.2,1
					c1,1.1,1.7,2.6,3.2,3.3l0.9,0.3c0,0.1,0.1,0.2,0,0.3l-0.1,0.1c-1.7,0.5-3.1-0.5-4.1-1.6c-0.6-1-1.5-2.1-2.8-2.5
					c-0.1,0-0.1,0.1-0.2,0.1c0.2,0.3,0.6,0.6,0.8,1c0.5,0.7,1,1.5,1.3,2.3c0.3,0.8,1.4,1.4,2.2,1.8l1.2,0.4c0.2,0.1,0.2,0.3,0.1,0.4
					l-0.2,0.1c-1.8,0.2-3.5-0.2-4.9-1.4c-0.4-0.3-0.8-0.6-1.2-0.5c-0.7,0.8-1.5,1.6-2.6,1.8c-1.1-0.1-2.4,0-3.4,0.6
					c-0.9,0.4-1.8,0.9-2.8,1c-0.5,0-1.1-0.1-1.3-0.6c-0.1-0.6-0.6-1.2-0.2-1.9l0.6-1.1c0-0.2-0.1-0.2-0.3-0.3c-0.3,0-0.7,0.5-0.9,0
					c0-1.1,0.9-1.8,1.6-2.6c0.1-0.9,0.3-1.6,0.9-2.3c0-0.1-0.1-0.2-0.2-0.2c-0.9,0.2-1.7,0.5-2.7,0.6c-0.7,0.5-1.6,0.8-2.5,0.7
					c-0.2-0.1-0.2-0.3-0.1-0.5c0.8-1.4,1-3,0.6-4.6c-0.1-0.1-0.3-0.2-0.4-0.2c-0.2,0-0.3,0.2-0.3,0.3c-0.1,1.5-0.2,2.7-0.8,4
					c-0.5,0.7-1.5,0.8-2.3,1.1c-0.2,0.1-0.4,0.3-0.3,0.5c0,0.5,0.4,0.9,0.7,1.3L383,40c0.2,0.9-0.2,1.8-0.3,2.6
					c0.1,0.1,0.2,0.1,0.3,0c0.6-0.6,0.9-1.4,1.1-2.2c0-0.4-0.2-0.8-0.3-1l-2.2-3.5c0.1-0.2,0.4-0.2,0.6-0.3c0.4-0.1,0.8,0.1,1.2,0.2
					c0.5,1.1,1.1,2.2,2,3c0.2,0.6,0.5,1.4,0.1,2c-0.3,0.8-0.7,1.6-1.1,2.4c-0.4,0.5-1.1,0.6-1.8,0.7l-0.6,0.1
					c-1.5,1-3.2,1.7-4.9,2.4c-0.7,0.4-1.7,0.3-2.3-0.2c-0.7-0.4-1-1.1-1.5-1.7c-0.5-0.6-1.2,0-1.8-0.2c-0.5-0.7-1.1-1.5-1.6-2.2
					c0-0.2,0-0.4,0.1-0.6c0.6-0.3,1.3-0.4,1.9-0.5c0.7-0.1,1.3,0,1.8,0.4c0.9,0.9,1.3,2.1,2.6,2.7c1,0,1.8-0.4,2.5-0.9
					c0.5-0.3,1-0.8,0.9-1.4c-0.2-1.2-1.1-2.1-2.1-2.7c-1.1-0.4-2.2-1.1-3.1-2c-0.4-0.5-0.6-1.1-0.9-1.7c-0.1-0.1-0.4-0.1-0.6-0.1
					c-0.4,0.4,0,0.6,0.1,1c0.1,0.3,0.1,0.6-0.1,0.9c-0.5,0.5-1.1,0.4-1.9,0.5c-1.5,0-2.8,0-4.4,0.3c-1.5,0.2-3.5,1.3-4.8-0.1
					c-0.7-1.4-0.4-3.1-0.2-4.6c0-0.2-0.3-0.3-0.4-0.3c-0.1,0-0.5,0.1-0.5,0.2c-0.2,1.4-0.2,3-0.4,4.5c-0.4,1.3-1.2,2.5-2.5,3.3
					c-1.1,0.7-2.5,1.1-3.9,1.3c-2.6,0.3-4.9,1.1-6.3,3.4c-0.1,0.2-0.3,0.7-0.2,1c0.1,0.1,0.3,0.1,0.4,0c1.6-2.2,3.8-3.2,6.3-3.3
					c3.4-0.3,4.7-0.7,6.2-3.2c0.3-0.5,0.6-1,0.9-1.5c0.3-0.1,0.5,0.3,0.7,0.4c0.1,0.7-0.4,1.3-0.6,1.9c-0.3,0.7-0.5,1.6-1.2,2
					c-0.8,0.3-1.4,0.9-2.1,1.4c-0.7,0.4-1.6,0.7-2.5,0.5c-1.1-0.1-2.7-0.2-3.7,0.4c-0.5,0.4-0.9,1.1-1.4,1.5
					c-0.8,0.4-1.4,1.1-2.3,1.2c-0.6-0.1-1.4-0.4-1.9,0.2c-0.6,0.7-0.7,1.8-1.5,2.3c-1,0.6-2.1,0.2-3.1,0.2c0.1-1,0.1-2,0.7-2.8
					c0.4-0.1,0.7-0.2,1-0.5c0.4-0.4,0.7-0.9,0.9-1.4c0.8-0.6,1.8-1.2,2.3-2.2c0.3-0.9,0.3-1.8,0.9-2.6l0.3-0.2L350,41
					c0.7-0.4,1.4-0.8,2-1.4c0.2-0.3,0.2-0.6,0.1-0.9c-0.4-0.9-0.8-1.5-1.1-2.4c-0.3-1-0.3-1.9-0.5-3c-0.1-0.1-0.2-0.2-0.3-0.3
					c-1.2,0.3-2.3,0.8-3.7,0.8c-1.9-0.1-3.9-1.1-4.7-2.8c-0.8-1.5-0.8-3.8,0.2-5.1c1-1.5,2.3-2.7,3.5-3.9c0.2-0.2,0.2-0.4,0.2-0.7
					c0-0.3-0.3-0.5-0.6-0.6c-0.8-0.1-1.8,0.3-2.6,0c-1.5-0.4-2.7-1.6-3-3.1c-0.1-0.7-0.1-1.2,0.2-1.8
					C340.7,16.3,341.6,17,342.7,17.2z"/>
			</g>
			<g>
				<path fill="#FFFFFF" d="M384.8,23.7L384.8,23.7L384.8,23.7c-0.1,0.2-0.3,0.2-0.4,0.2l-0.1,0l0-0.1c-0.3-1-0.6-1.9-1.1-2.8
					c-0.1-0.1-0.2-0.2-0.3-0.3c-0.1-0.1-0.2-0.2-0.3-0.4c-0.2-0.3-0.3-0.6-0.2-1l0-0.1c0.2-0.2,0.5-0.3,0.7-0.2l0.1,0
					c0.4,0.2,0.7,0.6,0.9,1C384.9,21.1,385,22.5,384.8,23.7z"/>
			</g>
			<g>
				<path fill="#FFFFFF" d="M397.5,31.6c0,0.1-0.1,0.1-0.1,0.2c0,0.1,0,0.1,0,0.2c0,0.2-0.1,0.3-0.3,0.4c-0.2,0.1-0.5-0.1-0.5-0.3
					c-0.1-0.3-0.1-0.6-0.2-0.9c-0.1-0.3-0.2-0.5-0.4-0.8c-0.1-0.1-0.2-0.2-0.4-0.3c-0.1-0.1-0.3-0.3-0.4-0.4
					c-0.3-0.2-0.5-0.4-0.8-0.3c-0.2,0.1-0.4,0.2-0.5,0.4c-0.1,0.1-0.2,0.2-0.2,0.3l-0.2,0.3c-0.1,0.2-0.3,0.1-0.3,0.1l-0.1,0l0-0.1
					c-0.2-0.4-0.1-0.7,0-1.1c0.1-0.3,0.3-0.6,0.3-0.9l0-0.1c0-0.1,0.1-0.2,0.2-0.3c0-0.2,0.1-0.3,0.1-0.5c0.2-0.4,0.4-0.6,1-0.5
					c0.3,0.1,0.6,0.4,0.8,0.6c0.1,0.1,0.2,0.2,0.3,0.4c0.1,0.1,0.2,0.2,0.3,0.3C397,29.3,397.7,30.3,397.5,31.6z"/>
			</g>
			<g>
				<path fill="#FFFFFF" d="M395.2,38.3L395.2,38.3L395.2,38.3c-0.5,0.2-1,0.3-1.5,0.3l0,0l0,0c-0.1,0-0.1,0-0.1,0c0,0-0.1,0-0.1,0
					c-0.1-0.1-0.2-0.2-0.1-0.3c0.2-0.7,0.7-1.4,1.5-1.7l0,0c0.1,0,0.1,0,0.2,0c0,0,0.1,0,0.2,0c0.1,0,0.3,0.1,0.3,0.3
					C395.6,37.3,395.7,37.9,395.2,38.3z"/>
			</g>
		</g>
	</g>
	<g>
		<path fill="#B1B3B4" d="M429.2,59.2H423V3.4h9.2c4.8,0,9.8,0.1,13.8,3c4.1,2.9,6.3,7.8,6.3,12.7c0,4.5-1.9,9.1-5.3,12
			c-3.8,3.1-8.6,3.7-13.2,3.7h-4.5V59.2z M429.2,29h4.1C440.2,29,446,27,446,19c0-9.1-7.3-9.8-14.6-9.8h-2.3V29z"/>
		<g>
			<path fill="#B1B3B4" d="M461.4,47.6c0,2.2-0.1,4.6,1.3,6.5c1.3,1.8,3.7,2.8,5.9,2.8c2.1,0,4.4-1,5.7-2.6c1.5-1.8,1.4-4.4,1.4-6.7
				V30.3h3.2v18.2c0,3.2-0.2,5.7-2.5,8.1c-2,2.2-4.9,3.3-7.8,3.3c-2.7,0-5.6-1-7.5-3c-2.5-2.4-2.9-5.1-2.9-8.4V30.3h3.2V47.6z"/>
			<path fill="#B1B3B4" d="M497.9,36c-1.2-2-2.5-3.2-5-3.2c-2.6,0-4.8,1.9-4.8,4.5c0,2.5,2.6,3.7,4.5,4.5l1.9,0.8
				c3.8,1.7,7,3.5,7,8.2c0,5.1-4.1,9-9.1,9c-4.7,0-8.1-3-9.1-7.5l3.2-0.9c0.4,3,2.7,5.4,5.8,5.4s6-2.4,6-5.7c0-3.4-2.7-4.5-5.4-5.8
				l-1.8-0.8c-3.4-1.5-6.3-3.3-6.3-7.4c0-4.5,3.8-7.4,8.1-7.4c3.2,0,6,1.7,7.5,4.5L497.9,36z"/>
		</g>
	</g>
</g>
</svg>
